<svg width="149" height="33" viewBox="0 0 149 33" fill="none" xmlns="http://www.w3.org/2000/svg">
<path fill-rule="evenodd" clip-rule="evenodd" d="M128.533 23.0649C128.783 27.6492 124.543 27.2344 122.374 25.8871C121.992 25.6496 121.814 25.4617 121.48 25.2816C120.95 25.7456 119.446 27.1778 119.112 27.7352C119.417 28.272 120.766 29.1719 121.602 29.5202C122.701 29.9776 123.975 30.226 125.298 30.2299C128.148 30.2378 130.175 29.3287 131.616 27.8475C133.44 25.9719 133.21 23.7393 133.21 20.6937C133.21 17.7584 133.157 14.7741 133.217 11.8447C132.344 11.8397 129.862 11.7388 129.172 11.9156L129.152 13.5578C128.726 13.3262 128.932 13.3581 128.594 12.9798C128.381 12.7403 128.211 12.6331 127.933 12.4499C127.485 12.1539 126.964 11.9444 126.325 11.7954C125.053 11.4988 123.578 11.6831 122.505 12.1729C120.573 13.054 119.17 15.0942 118.993 17.8497C118.801 20.8189 120.113 23.0901 121.86 24.1347C122.932 24.7755 124.155 25.0458 125.58 24.7856C127.763 24.3874 128.021 23.3343 128.533 23.0649ZM125.638 15.6232C122.845 16.2354 123.083 21.7489 126.726 21.1695C128.792 20.8407 128.625 19.0965 128.55 17.8222C128.479 16.6118 127.064 15.3107 125.638 15.6232Z" fill="#3897F1"/>
<path fill-rule="evenodd" clip-rule="evenodd" d="M104.797 13.294C104.942 14.0345 105.741 15.5804 106.084 16.0697C106.962 15.833 107.616 14.9494 109.6 14.7934C111.229 14.6654 112.556 15.0343 112.304 16.8622C110.312 16.3281 108.285 16.129 106.464 17.1369C101.166 20.0683 105.605 27.0507 111.103 24.2829C111.518 24.074 111.872 23.8354 112.176 23.5626C112.58 23.2002 112.648 22.9672 113.096 22.7255C113.436 23.9006 113.587 24.3969 114.725 24.7069C115.761 24.9898 116.87 24.8394 117.884 24.5999L117.929 20.9323C117.831 20.4965 117.406 20.7323 117.151 20.2515C116.511 19.043 118.305 14.3084 114.375 12.402C112.939 11.7055 111.008 11.526 109.266 11.7136C107.873 11.8638 105.58 12.5412 104.797 13.294ZM112.277 19.2615C111.601 18.9472 110.304 18.817 109.597 19.0677C107.584 19.7815 108.514 22.2864 111.159 21.3552C112.13 21.0135 112.575 20.5763 112.277 19.2615Z" fill="#3897F1"/>
<path fill-rule="evenodd" clip-rule="evenodd" d="M92.4163 21.3345L88.5176 20.2527C88.2213 21.1158 87.0764 21.6854 85.9147 21.5569C84.6859 21.4211 84.0776 20.8604 83.9028 19.6346C85.649 19.3663 89.556 19.5791 91.5234 19.5844C92.8162 19.5878 93.3606 20.1241 93.0884 17.3501C92.4356 10.6991 82.3348 9.52086 79.5611 15.4186C78.193 18.3284 79.2166 22.0383 81.6548 23.6397C85.8772 26.4125 91.6954 24.0939 92.4163 21.3345ZM83.8443 16.7749L88.0986 16.7897C87.895 14.2642 84.0367 14.3698 83.8443 16.7749Z" fill="#3897F1"/>
<path fill-rule="evenodd" clip-rule="evenodd" d="M58.2305 13.5632L58.216 11.887L54.0227 11.8411L54.0386 24.6187L58.6456 24.61C58.8951 22.4819 58.3641 17.8604 58.9287 16.9835C59.2074 16.5505 59.8003 15.9417 60.5066 15.7874C62.6311 15.3239 62.4258 17.654 62.4258 19.2615C62.4255 21.0418 62.4241 22.8221 62.4238 24.6025L67.0291 24.6139C67.2187 23.0364 67.0661 20.45 67.0661 18.784C67.0661 14.9836 67.4559 11.3583 62.3155 11.6845C61.5111 11.7355 60.6687 11.9514 59.9747 12.2981C58.873 12.8485 58.7237 13.38 58.2305 13.5632Z" fill="#3897F1"/>
<path fill-rule="evenodd" clip-rule="evenodd" d="M70.2229 11.7765L68.6288 11.8642L68.6363 15.3092L70.2027 15.3607C70.5127 17.9109 69.5877 22.2372 71.1034 23.8095C72.7663 25.5352 76.4267 24.8673 78.3748 23.9081C78.3588 23.2827 77.7631 20.6647 77.5366 20.2718C76.5712 20.5961 75.0233 21.1523 74.934 19.6249C74.8836 18.7659 74.8556 16.1449 74.9827 15.377L77.4483 15.3279L77.4467 11.8538L74.9894 11.8328C74.7531 10.6174 75.246 8.75051 74.8458 7.77003L70.3016 7.71851L70.2229 11.7765Z" fill="#3897F1"/>
<path fill-rule="evenodd" clip-rule="evenodd" d="M99.0422 13.8619L98.9758 11.8438L94.7119 11.8436L94.7279 24.6217L99.3368 24.6091C99.5348 22.8509 99.3808 19.9016 99.3673 18.0673C99.3572 16.7073 99.4555 16.462 100.572 16.0187C101.569 15.6224 102.39 15.7106 103.439 15.5358L103.488 11.389C101.763 11.2456 100.819 11.8615 99.8272 12.8859L99.1001 13.809C99.0898 13.8196 99.0635 13.8465 99.0422 13.8619Z" fill="#3897F1"/>
<path fill-rule="evenodd" clip-rule="evenodd" d="M140.852 11.5363C131.956 12.4451 133.012 25.927 143.023 24.6435C151.755 23.5244 150.825 10.5177 140.852 11.5363ZM141.4 15.4554C138.538 15.9827 139.122 21.5181 142.452 20.7373C145.098 20.1172 144.79 14.8306 141.4 15.4554Z" fill="#3897F1"/>
<path fill-rule="evenodd" clip-rule="evenodd" d="M46.9921 11.5754H51.0143C51.0148 11.5754 51.0151 11.5771 51.0151 11.5771V24.4133C51.0151 24.4144 51.0148 24.4149 51.0143 24.4149H46.9921C46.9915 24.4149 46.9913 24.4144 46.9913 24.4133V11.5771C46.9913 11.576 46.9915 11.5754 46.9921 11.5754Z" fill="#3897F1"/>
<path d="M24.5139 2.16573C23.7941 2.16349 22.8178 2.14641 21.6724 2.12428C15.6809 2.00862 5.05624 1.74844 2.23349 2.66591C2.14 5.53482 1.31462 20.4285 3.45941 20.8932L24.3366 21.0634L24.5139 2.16573Z" stroke="#1E71E3" stroke-width="4" stroke-miterlimit="10"/>
<path d="M37.5609 11.6975C36.8408 11.6949 35.8646 11.6781 34.7191 11.656C28.7279 11.5404 18.1031 11.2802 15.2804 12.1977C15.1868 15.0666 14.3615 29.9603 16.5062 30.4249L37.3833 30.5949L37.5609 11.6975Z" stroke="#3897F1" stroke-width="4" stroke-miterlimit="10"/>
<path d="M50 6.0262C49.9041 6.02572 49.7739 6.02309 49.6214 6.0195C48.823 6.00134 47.4072 5.96047 47.0312 6.10482C47.0186 6.55628 46.9087 8.9001 47.1945 8.97323L49.9763 9L50 6.0262Z" fill="#3897F1" stroke="#3897F1" stroke-width="1.5" stroke-miterlimit="10"/>
</svg>
